<?xml version="1.0" encoding="UTF-8"?>
<svg version="1.1" xmlns="http://www.w3.org/2000/svg" width="174" height="148">
<path d="M0 0 C57.42 0 114.84 0 174 0 C174 48.84 174 97.68 174 148 C116.58 148 59.16 148 0 148 C0 99.16 0 50.32 0 0 Z " fill="#FDFEFE" transform="translate(0,0)"/>
<path d="M0 0 C10.89480937 6.27620358 17.94264491 14.54556991 22.11328125 26.40625 C25.2650842 39.18007692 22.87067346 49.71324335 16.2734375 60.9375 C11.63600158 67.96044823 6.43104742 72.14841486 -1 76 C-1.79148437 76.433125 -2.58296875 76.86625 -3.3984375 77.3125 C-10.71392498 80.8122681 -18.07322217 80.38048534 -26 80 C-26.66 78.68 -27.32 77.36 -28 76 C-28.66 76 -29.32 76 -30 76 C-33 70.25 -33 70.25 -33 68 C-32.34 67.67 -31.68 67.34 -31 67 C-30.79029441 62.85906302 -30.79029441 62.85906302 -32 59 C-32.99 59 -33.98 59 -35 59 C-35.03738281 59.58007812 -35.07476562 60.16015625 -35.11328125 60.7578125 C-35.53903667 65.81678864 -36.37138991 69.54279158 -39 74 C-39.66 74 -40.32 74 -41 74 C-41.2475 74.61875 -41.495 75.2375 -41.75 75.875 C-43.26490337 78.45033573 -44.25573818 78.90229527 -47 80 C-51.88155349 80.69276172 -55.88243347 80.51739191 -60.375 78.4375 C-64.79505457 74.33316361 -67.17018931 70.55773185 -67.625 64.5625 C-67.40854671 59.3135078 -64.74112001 55.55697162 -61 52 C-60.34 52 -59.68 52 -59 52 C-59 51.01 -59 50.02 -59 49 C-57.515 48.505 -57.515 48.505 -56 48 C-56.99 47.67 -57.98 47.34 -59 47 C-62.77898624 41.68142678 -62.61341924 36.2534684 -62 30 C-60.03495713 19.02851062 -53.59048245 9.95130912 -45 3 C-31.01202267 -5.53136698 -15.01276587 -6.85911439 0 0 Z " fill="#EFF7F6" transform="translate(109,36)"/>
<path d="M0 0 C10.89480937 6.27620358 17.94264491 14.54556991 22.11328125 26.40625 C25.2650842 39.18007692 22.87067346 49.71324335 16.2734375 60.9375 C11.63600158 67.96044823 6.43104742 72.14841486 -1 76 C-1.79148438 76.433125 -2.58296875 76.86625 -3.3984375 77.3125 C-10.39481323 80.65960334 -18.38554953 81.25523062 -26 80 C-28.71958721 77.43026759 -28.97320617 76.2181783 -29.4375 72.4375 C-29 69 -29 69 -27.35546875 67.33984375 C-24.46144623 65.69365847 -22.18152747 65.45166898 -18.875 65.125 C-10.8542168 64.01775383 -4.1383906 61.70654735 1.4375 55.625 C7.31537632 47.81558358 8.13190201 40.69123722 7 31 C4.45091491 22.53703751 -0.65291794 17.52130759 -8.125 13.1875 C-15.37656509 10.19228833 -22.74375414 9.91741971 -30.125 12.625 C-36.73456233 15.53402977 -41.74838479 19.46959731 -45 26 C-45.74558088 29.43105275 -46.30996605 32.82291551 -46.81640625 36.29296875 C-47.28500607 39.17458832 -47.67825527 41.52954186 -49.34375 43.96484375 C-51.35982052 45.22488782 -52.62931602 45.43301007 -55 45.4375 C-55.680625 45.45683594 -56.36125 45.47617188 -57.0625 45.49609375 C-59 45 -59 45 -60.7265625 43.29296875 C-63.75811563 37.83431327 -62.40252192 30.69413114 -60.875 24.875 C-57.31754255 14.41772974 -49.7122591 5.17656549 -39.875 0.125 C-27.03618222 -5.89451129 -12.93972293 -5.91197122 0 0 Z " fill="#1D75B8" transform="translate(109,36)"/>
<path d="M0 0 C6.62315727 2.35926938 10.52196433 7.2987624 13.8125 13.3125 C15.70552502 19.19084086 15.73472674 23.83255612 13.75 29.6875 C9.66460771 37.42056397 5.71776276 41.14111862 -2 45 C-10.14801184 45.86517868 -17.02182831 45.7804114 -23.8671875 40.95703125 C-28.4773083 36.72686546 -31.58234636 32.23371432 -32.39453125 25.9453125 C-32.43317381 23.24033321 -32.38386901 20.67736489 -32 18 C-31 17 -31 17 -28.5625 16.75 C-27.2940625 16.87375 -27.2940625 16.87375 -26 17 C-23.61480019 20.57779971 -23.301373 23.44152762 -22.66015625 27.625 C-21.92286516 30.27750285 -20.98958818 31.17846968 -19 33 C-19 33.66 -19 34.32 -19 35 C-15.50996043 36.0495718 -12.19812138 36.23264242 -8.5625 36.3125 C-6.89380859 36.36857422 -6.89380859 36.36857422 -5.19140625 36.42578125 C-1.33535102 35.9113259 0.24984769 34.69025788 3 32 C3.495 31.01 3.495 31.01 4 30 C4.66 30 5.32 30 6 30 C6.39208106 21.96959901 6.52104713 15.94784072 0.9375 9.6875 C-3.17630213 7.32425197 -7.34441376 6.68703797 -12 6 C-12.33 4.02 -12.66 2.04 -13 0 C-9.05668342 -1.97165829 -4.21517195 -0.74625451 0 0 Z " fill="#2AA8DB" transform="translate(98,52)"/>
<path d="M0 0 C3.7015092 -0.34919898 6.02769256 -0.20305005 9.22265625 1.80859375 C14.57015625 6.35109375 14.57015625 6.35109375 15.90234375 10.34765625 C16.02027374 11.99044842 16.07746049 13.63818319 16.08984375 15.28515625 C16.10402344 16.13980469 16.11820313 16.99445313 16.1328125 17.875 C15.88937931 20.48674928 15.22017055 22.10266277 13.90234375 24.34765625 C13.24234375 24.34765625 12.58234375 24.34765625 11.90234375 24.34765625 C11.65484375 24.96640625 11.40734375 25.58515625 11.15234375 26.22265625 C9.63744038 28.79799198 8.64660557 29.24995152 5.90234375 30.34765625 C1.02079026 31.04041797 -2.98008972 30.86504816 -7.47265625 28.78515625 C-11.89271082 24.68081986 -14.26784556 20.9053881 -14.72265625 14.91015625 C-14.46521971 9.54076558 -11.94251091 5.96270351 -8.09765625 2.34765625 C-5.29791762 0.85446231 -3.08431959 0.51118146 0 0 Z " fill="#2BA9DF" transform="translate(56.09765625,85.65234375)"/>
<path d="M0 0 C3.95997617 2.41042028 6.39272961 4.30318884 7.875 8.75 C8.40962577 15.16550928 7.75099437 18.54800755 3.875 23.75 C-0.46124363 26.73719005 -3.9174678 27.30794988 -9.125 26.75 C-13.76196928 25.02250164 -16.78607692 23.15797042 -19.125 18.75 C-19.85701219 13.36448178 -20.08172107 8.55305124 -17.5 3.6875 C-11.83229182 -0.93615667 -6.98843868 -2.79537547 0 0 Z " fill="#1C75B9" transform="translate(95.125,61.25)"/>
<path d="M0 0 C4.44928775 1.68766087 8.11461237 4.34995942 10.375 8.5625 C11.2686137 13.47737537 10.64840608 18.07561866 10 23 C9.34 23 8.68 23 8 23 C7.7525 23.598125 7.505 24.19625 7.25 24.8125 C5.75381569 27.43082254 4.59592961 28.45812234 2 30 C-1.09375 30.36328125 -1.09375 30.36328125 -4.5 30.3125 C-5.6240625 30.30863281 -6.748125 30.30476563 -7.90625 30.30078125 C-11.66998562 29.93486251 -13.76300993 29.14795223 -16.51953125 26.58984375 C-19.35612688 22.9648288 -20.34098721 20.7161235 -19.8125 16.0625 C-19.56965731 14.70303485 -19.30829774 13.3461317 -19 12 C-18.67 12 -18.34 12 -18 12 C-17.97421875 12.59167969 -17.9484375 13.18335937 -17.921875 13.79296875 C-17.54707556 19.01460645 -17.03298398 22.30309802 -13 26 C-9.02916043 28.25371975 -5.50943346 28.39556434 -1 28 C2.83710223 26.67177231 4.54519837 25.65188234 6.875 22.3125 C8.57168803 17.31669637 8.92553279 13.19205135 6.8125 8.1875 C4.77445949 5.72779594 2.79705051 4.50610412 0 3 C-0.66 2.34 -1.32 1.68 -2 1 C-1.34 0.67 -0.68 0.34 0 0 Z " fill="#B3DEEB" transform="translate(94,59)"/>
<path d="M0 0 C0.66 0 1.32 0 2 0 C3.27516472 5.38402881 3.06943727 10.59701693 2 16 C1.34 16.99 0.68 17.98 0 19 C-0.38499891 20.65549531 -0.72793135 22.3222433 -1 24 C-3.31 23.67 -5.62 23.34 -8 23 C-7.505 21.515 -7.505 21.515 -7 20 C-6.34 20 -5.68 20 -5 20 C-4.67 18.02 -4.34 16.04 -4 14 C-2.68 14.66 -1.36 15.32 0 16 C0 15.34 0 14.68 0 14 C-0.66 14 -1.32 14 -2 14 C-1.9278125 13.31292969 -1.855625 12.62585938 -1.78125 11.91796875 C-1.6884375 11.01691406 -1.595625 10.11585937 -1.5 9.1875 C-1.4071875 8.29417969 -1.314375 7.40085937 -1.21875 6.48046875 C-0.95607599 3.91694901 -0.95607599 3.91694901 -1 1 C-0.67 0.67 -0.34 0.34 0 0 Z " fill="#27A9E5" transform="translate(108,66)"/>
<path d="M0 0 C1.2065625 0.0309375 1.2065625 0.0309375 2.4375 0.0625 C2.4375 1.0525 2.4375 2.0425 2.4375 3.0625 C0.7875 3.0625 -0.8625 3.0625 -2.5625 3.0625 C-2.253125 3.825625 -1.94375 4.58875 -1.625 5.375 C-0.08326375 9.27468582 0.79392416 12.92522674 1.4375 17.0625 C2.3346875 17.1553125 2.3346875 17.1553125 3.25 17.25 C6.34089529 18.39804682 7.0255344 20.16797052 8.4375 23.0625 C8.4375 23.7225 8.4375 24.3825 8.4375 25.0625 C4.2159086 23.74145779 2.49907874 22.3096908 0.1875 18.5625 C-0.31265625 17.7684375 -0.8128125 16.974375 -1.328125 16.15625 C-3.39904442 12.64355123 -3.69818246 10.59672347 -3.6875 6.5 C-3.69007812 5.50871094 -3.69265625 4.51742187 -3.6953125 3.49609375 C-3.51199405 0.13705266 -3.37734942 0.08237438 0 0 Z " fill="#3DA9D8" transform="translate(69.5625,68.9375)"/>
<path d="M0 0 C0.33 0.66 0.66 1.32 1 2 C0.34 2 -0.32 2 -1 2 C-1.66 3.65 -2.32 5.3 -3 7 C-3.66 7 -4.32 7 -5 7 C-5 7.99 -5 8.98 -5 10 C-5.66 10 -6.32 10 -7 10 C-7.33 10.66 -7.66 11.32 -8 12 C-8.49113281 12.39832031 -8.98226562 12.79664063 -9.48828125 13.20703125 C-11.70482402 15.83595407 -11.75345544 18.31530763 -12.1875 21.6875 C-12.34605469 22.86699219 -12.50460938 24.04648438 -12.66796875 25.26171875 C-12.77753906 26.16535156 -12.88710938 27.06898437 -13 28 C-13.66 28 -14.32 28 -15 28 C-15.55617458 19.47198981 -13.70935972 12.54068295 -8.0625 6 C-5.55541969 3.29486517 -3.39722857 1.45921227 0 0 Z " fill="#D4EAF2" transform="translate(76,49)"/>
<path d="M0 0 C0.66 0.66 1.32 1.32 2 2 C0.68 2 -0.64 2 -2 2 C-2 2.66 -2 3.32 -2 4 C-6.29 3.34 -10.58 2.68 -15 2 C-15 1.67 -15 1.34 -15 1 C-8.25 0.875 -8.25 0.875 -6 2 C-6 1.34 -6 0.68 -6 0 C-8.29141286 -0.05384521 -10.58318188 -0.09272087 -12.875 -0.125 C-14.15117188 -0.14820313 -15.42734375 -0.17140625 -16.7421875 -0.1953125 C-20.08593338 -0.35641524 -20.08593338 -0.35641524 -22 2 C-22.66 1.01 -23.32 0.02 -24 -1 C-15.79944093 -4.36433193 -7.98342619 -3.67946492 0 0 Z " fill="#DEEEF3" transform="translate(102,49)"/>
<path d="M0 0 C4.58527588 4.08957038 7.47827469 7.96913597 8.28515625 14.203125 C8.5604252 21.24043558 6.57404429 26.55470918 2 32 C2.875 27.25 2.875 27.25 4 25 C4.25653072 22.85939367 4.45726626 20.71188802 4.625 18.5625 C4.72039062 17.40878906 4.81578125 16.25507812 4.9140625 15.06640625 C5.17644218 11.95819235 5.17644218 11.95819235 4 9 C3.34 8.34 2.68 7.68 2 7 C1.28072705 4.68234271 0.6090107 2.34904126 0 0 Z " fill="#3AA8D3" transform="translate(105,57)"/>
<path d="M0 0 C0.66 0.66 1.32 1.32 2 2 C2.66 1.67 3.32 1.34 4 1 C4.6875 2.8125 4.6875 2.8125 5 5 C4.0625 6.75 4.0625 6.75 2 8 C-0.85179218 8.43067882 -3.0652965 8.27949557 -6 8 C-6.66 7.01 -7.32 6.02 -8 5 C-7.67 4.34 -7.34 3.68 -7 3 C-6.01 3 -5.02 3 -4 3 C-3.67 2.34 -3.34 1.68 -3 1 C-2.01 0.67 -1.02 0.34 0 0 Z " fill="#1F75B8" transform="translate(56,73)"/>
<path d="M0 0 C0.99 0 1.98 0 3 0 C3 0.66 3 1.32 3 2 C2.34 2 1.68 2 1 2 C1.33 3.98 1.66 5.96 2 8 C4.64 8.33 7.28 8.66 10 9 C10 9.33 10 9.66 10 10 C6.04 10.66 2.08 11.32 -2 12 C-2 11.34 -2 10.68 -2 10 C-2.66 10 -3.32 10 -4 10 C-4.103125 9.21625 -4.20625 8.4325 -4.3125 7.625 C-4.77595022 4.66954819 -4.77595022 4.66954819 -8 3 C-6.68 2.67 -5.36 2.34 -4 2 C-3.01 3.485 -3.01 3.485 -2 5 C-1.34 5 -0.68 5 0 5 C0 3.35 0 1.7 0 0 Z " fill="#E8F6F8" transform="translate(84,50)"/>
<path d="M0 0 C0.33 0.99 0.66 1.98 1 3 C1.66 3 2.32 3 3 3 C3.05390357 5.93774463 3.0936255 8.87450232 3.125 11.8125 C3.15013672 13.06256836 3.15013672 13.06256836 3.17578125 14.33789062 C3.18222656 15.14033203 3.18867188 15.94277344 3.1953125 16.76953125 C3.20578613 17.50792236 3.21625977 18.24631348 3.22705078 19.00708008 C3 21 3 21 1 24 C-0.29235715 19.08497242 -0.11135517 14.22709898 -0.0625 9.1875 C-0.05798828 8.30384766 -0.05347656 7.42019531 -0.04882812 6.50976562 C-0.03709866 4.33981441 -0.01916495 2.16989828 0 0 Z " fill="#F6F9F3" transform="translate(132,61)"/>
<path d="M0 0 C2.01092387 2.01092387 4.02020003 4.02083128 6 6.0625 C7.89948472 7.90262582 9.85045134 9.4646081 12 11 C11.01 11.33 10.02 11.66 9 12 C9 11.34 9 10.68 9 10 C8.01 10 7.02 10 6 10 C5.67 12.97 5.34 15.94 5 19 C4.67 19 4.34 19 4 19 C3.91363281 18.26394531 3.82726562 17.52789062 3.73828125 16.76953125 C2.83414946 10.49037742 2.11940422 6.90691374 -3 3 C-2.01 3 -1.02 3 0 3 C0 2.01 0 1.02 0 0 Z " fill="#DAF2F4" transform="translate(68,85)"/>
<path d="M0 0 C0.99 0 1.98 0 3 0 C3 1.32 3 2.64 3 4 C3.99 4 4.98 4 6 4 C7.45295405 13.01531729 7.45295405 13.01531729 5.5625 17.125 C5.046875 17.74375 4.53125 18.3625 4 19 C2.67770811 16.35541621 2.90322806 14.32238699 2.9375 11.375 C2.94652344 10.37210938 2.95554687 9.36921875 2.96484375 8.3359375 C2.98224609 7.17964844 2.98224609 7.17964844 3 6 C2.01 6.33 1.02 6.66 0 7 C0 6.34 0 5.68 0 5 C0.66 5 1.32 5 2 5 C1.34 3.35 0.68 1.7 0 0 Z " fill="#20ABE4" transform="translate(64,90)"/>
<path d="M0 0 C0.66 1.32 1.32 2.64 2 4 C1.34 4.66 0.68 5.32 0 6 C-0.33 5.67 -0.66 5.34 -1 5 C-1.33 5.66 -1.66 6.32 -2 7 C0.97 7.495 0.97 7.495 4 8 C3.01 9.485 3.01 9.485 2 11 C1.34 11 0.68 11 0 11 C-0.33 10.34 -0.66 9.68 -1 9 C-3.54941373 8.68758629 -6.00361513 8.48696579 -8.5625 8.375 C-9.27341797 8.33632812 -9.98433594 8.29765625 -10.71679688 8.2578125 C-12.47742425 8.16328217 -14.23867728 8.08054183 -16 8 C-16 7.67 -16 7.34 -16 7 C-15.33613281 6.97421875 -14.67226562 6.9484375 -13.98828125 6.921875 C-8.48233744 6.56820854 -4.95813608 6.2134997 -1 2 C-0.67 1.34 -0.34 0.68 0 0 Z " fill="#38AED9" transform="translate(102,82)"/>
<path d="M0 0 C4.49307277 1.99692123 8.09180904 4.22489949 10.375 8.6875 C11.18397669 12.97507645 10.70299079 16.72505601 10 21 C9.67 21 9.34 21 9 21 C8.90203125 20.10796875 8.8040625 19.2159375 8.703125 18.296875 C8.55359375 17.12640625 8.4040625 15.9559375 8.25 14.75 C8.04117188 13.00976562 8.04117188 13.00976562 7.828125 11.234375 C6.89847245 7.60346788 5.90439324 6.2975051 3 4 C0.36777038 2.74563813 0.36777038 2.74563813 -2 2 C-1.34 1.34 -0.68 0.68 0 0 Z " fill="#B7E4F2" transform="translate(94,59)"/>
<path d="M0 0 C1.16144531 0.12890625 2.32289062 0.2578125 3.51953125 0.390625 C4.39996094 0.50921875 5.28039062 0.6278125 6.1875 0.75 C6.1875 1.08 6.1875 1.41 6.1875 1.75 C5.15689453 1.82347656 5.15689453 1.82347656 4.10546875 1.8984375 C2.75388672 2.01058594 2.75388672 2.01058594 1.375 2.125 C0.48167969 2.19460937 -0.41164063 2.26421875 -1.33203125 2.3359375 C-4.05648499 2.61645036 -4.05648499 2.61645036 -6.8125 4.75 C-7.54856499 8.31769552 -7.54856499 8.31769552 -7.8125 11.75 C-10.27528801 9.28721199 -10.81021255 7.04323018 -11.8125 3.75 C-7.78029476 -0.16830114 -5.53328555 -0.67070128 0 0 Z " fill="#DEEEF1" transform="translate(87.8125,100.25)"/>
<path d="M0 0 C10.56210062 -0.48810735 19.00984204 0.16815859 29 4 C26.07175348 4.97608217 24.04386724 5.08226668 21 5 C21 4.34 21 3.68 21 3 C14.07 2.34 7.14 1.68 0 1 C0 0.67 0 0.34 0 0 Z " fill="#2B79B0" transform="translate(80,32)"/>
<path d="M0 0 C0.99 0 1.98 0 3 0 C3.33 1.32 3.66 2.64 4 4 C8.62 4 13.24 4 18 4 C18.33 3.01 18.66 2.02 19 1 C19.66 1.33 20.32 1.66 21 2 C21 2.66 21 3.32 21 4 C16.44784545 6.66467584 13.2694336 7.56458217 8 7 C4.57365272 5.70703876 2.58923385 4.93741749 0.625 1.8125 C0.41875 1.214375 0.2125 0.61625 0 0 Z " fill="#3379AD" transform="translate(78,81)"/>
<path d="M0 0 C0.99 0 1.98 0 3 0 C3.05384521 2.29141286 3.09272087 4.58318188 3.125 6.875 C3.14820312 8.15117188 3.17140625 9.42734375 3.1953125 10.7421875 C3 14 3 14 1 16 C-0.50156874 12.99686252 -0.09281204 10.20932478 -0.0625 6.875 C-0.05347656 5.59367187 -0.04445313 4.31234375 -0.03515625 2.9921875 C-0.02355469 2.00476563 -0.01195313 1.01734375 0 0 Z " fill="#F7FCF6" transform="translate(113,66)"/>
<path d="M0 0 C0.99 0 1.98 0 3 0 C3 3.3 3 6.6 3 10 C2.34 10 1.68 10 1 10 C0.67 9.34 0.34 8.68 0 8 C-1.65 8.66 -3.3 9.32 -5 10 C-3.35 6.7 -1.7 3.4 0 0 Z " fill="#2979B3" transform="translate(115,83)"/>
<path d="M0 0 C0 0.33 0 0.66 0 1 C-1.65 1.33 -3.3 1.66 -5 2 C-5.33 3.32 -5.66 4.64 -6 6 C-1.545 5.01 -1.545 5.01 3 4 C3 5.32 3 6.64 3 8 C-4.41641337 8.36474164 -4.41641337 8.36474164 -7 6.75 C-8 5 -8 5 -8 1 C-5.29120665 -0.35439668 -2.99066732 -0.06501451 0 0 Z " fill="#3FA6D0" transform="translate(93,51)"/>
<path d="M0 0 C0.33 0 0.66 0 1 0 C1.05428973 2.22889496 1.09292338 4.45817471 1.125 6.6875 C1.14820312 7.92886719 1.17140625 9.17023438 1.1953125 10.44921875 C1.01032021 13.81237857 0.45767895 15.9985587 -1 19 C-1.66 18.34 -2.32 17.68 -3 17 C-3.99 17.99 -4.98 18.98 -6 20 C-6 16.61976483 -5.12544378 14.16531063 -4 11 C-3.01 11.66 -2.02 12.32 -1 13 C-0.67 8.71 -0.34 4.42 0 0 Z " fill="#D1EBF2" transform="translate(116,67)"/>
<path d="M0 0 C0.7425 0.350625 1.485 0.70125 2.25 1.0625 C5.36475101 2.12434693 5.94149699 1.77539513 9 1 C11.08234592 0.93256652 13.16668557 0.91485528 15.25 0.9375 C16.32765625 0.94652344 17.4053125 0.95554687 18.515625 0.96484375 C19.33546875 0.97644531 20.1553125 0.98804687 21 1 C20.67 1.66 20.34 2.32 20 3 C17.22954827 3.27554763 14.46186584 3.52123257 11.6875 3.75 C10.90181641 3.83121094 10.11613281 3.91242188 9.30664062 3.99609375 C7.13708474 4.1622725 5.1591408 4.27712123 3 4 C0.95703125 2.015625 0.95703125 2.015625 0 0 Z " fill="#24AAE9" transform="translate(75,89)"/>
<path d="M0 0 C3.3 0 6.6 0 10 0 C9.01 0.495 9.01 0.495 8 1 C8 1.66 8 2.32 8 3 C5.36 2.67 2.72 2.34 0 2 C0 1.34 0 0.68 0 0 Z M9 4 C9 4.33 9 4.66 9 5 C6.03 5.66 3.06 6.32 0 7 C0 6.01 0 5.02 0 4 C3.47823115 2.84058962 5.45895578 3.29179116 9 4 Z " fill="#E6EFF0" transform="translate(50,81)"/>
<path d="M0 0 C3 1 3 1 4.1875 3.375 C5 6 5 6 5 9 C4.01 9.495 4.01 9.495 3 10 C2.34 9.01 1.68 8.02 1 7 C-0.98 7.99 -0.98 7.99 -3 9 C-2.01 6.03 -1.02 3.06 0 0 Z " fill="#2C7DB8" transform="translate(51,54)"/>
<path d="M0 0 C3 1.1875 3 1.1875 5 3.1875 C3.68 3.1875 2.36 3.1875 1 3.1875 C1 3.8475 1 4.5075 1 5.1875 C-3.29 4.5275 -7.58 3.8675 -12 3.1875 C-12 2.8575 -12 2.5275 -12 2.1875 C-5.25 2.0625 -5.25 2.0625 -3 3.1875 C-3 2.5275 -3 1.8675 -3 1.1875 C-3.66 0.8575 -4.32 0.5275 -5 0.1875 C-3 -0.8125 -3 -0.8125 0 0 Z " fill="#CEEAF2" transform="translate(99,47.8125)"/>
<path d="M0 0 C3.875 2.625 3.875 2.625 5 6 C5.11792999 7.64279217 5.17511674 9.29052694 5.1875 10.9375 C5.20167969 11.79214844 5.21585937 12.64679688 5.23046875 13.52734375 C4.98703556 16.13909303 4.3178268 17.75500652 3 20 C2.34 20 1.68 20 1 20 C1.33 19.21625 1.66 18.4325 2 17.625 C3.27410171 13.00638131 3.16923936 8.75750644 3 4 C2.01 4 1.02 4 0 4 C0 2.68 0 1.36 0 0 Z " fill="#40A8D3" transform="translate(67,90)"/>
<path d="M0 0 C0.33 0.66 0.66 1.32 1 2 C0.06553465 4.03144641 -0.93224776 6.03533587 -2 8 C-2.99 8 -3.98 8 -5 8 C-5.33 8.99 -5.66 9.98 -6 11 C-7.32 10.34 -8.64 9.68 -10 9 C-9.44570312 8.60167969 -8.89140625 8.20335938 -8.3203125 7.79296875 C-7.59585938 7.26316406 -6.87140625 6.73335938 -6.125 6.1875 C-5.40570313 5.66542969 -4.68640625 5.14335938 -3.9453125 4.60546875 C-1.76971345 2.96727223 -1.76971345 2.96727223 0 0 Z " fill="#D7E9EF" transform="translate(122,100)"/>
<path d="M0 0 C0.66 0 1.32 0 2 0 C2.33 0.99 2.66 1.98 3 3 C2.38125 3.7425 1.7625 4.485 1.125 5.25 C-1.41935822 8.54269888 -1.67915589 10.90923765 -2 15 C-3.75282525 12.31920844 -4.01311136 11.13111361 -3.6875 7.875 C-3 5 -3 5 -2 3 C-1.01 3 -0.02 3 1 3 C0.67 2.01 0.34 1.02 0 0 Z " fill="#E9F6F6" transform="translate(44,88)"/>
<path d="M0 0 C1.65 0 3.3 0 5 0 C5.33 2.31 5.66 4.62 6 7 C1.545 6.01 1.545 6.01 -3 5 C-2.01 4.67 -1.02 4.34 0 4 C0 2.68 0 1.36 0 0 Z " fill="#297BB6" transform="translate(96,42)"/>
<path d="M0 0 C2.375 0.1875 2.375 0.1875 5 1 C6.3125 3.5625 6.3125 3.5625 7 6 C6.01 6 5.02 6 4 6 C3.67 6.66 3.34 7.32 3 8 C0.9375 5.6875 0.9375 5.6875 -1 3 C-0.67 2.01 -0.34 1.02 0 0 Z " fill="#22ACE5" transform="translate(101,58)"/>
<path d="M0 0 C1.2065625 0.0309375 1.2065625 0.0309375 2.4375 0.0625 C2.4375 1.0525 2.4375 2.0425 2.4375 3.0625 C0.7875 3.0625 -0.8625 3.0625 -2.5625 3.0625 C-2.2325 3.7225 -1.9025 4.3825 -1.5625 5.0625 C-1.522508 7.06210012 -1.51903201 9.06297242 -1.5625 11.0625 C-3.5625 9.0625 -3.5625 9.0625 -3.79296875 7.15234375 C-3.6519597 0.08907219 -3.6519597 0.08907219 0 0 Z " fill="#3AA5CD" transform="translate(69.5625,68.9375)"/>
<path d="M0 0 C0 0.99 0 1.98 0 3 C-1.65 3 -3.3 3 -5 3 C-5 5.64 -5 8.28 -5 11 C-5.103125 10.360625 -5.20625 9.72125 -5.3125 9.0625 C-5.539375 8.381875 -5.76625 7.70125 -6 7 C-6.99 6.67 -7.98 6.34 -9 6 C-4.53846154 0 -4.53846154 0 0 0 Z " fill="#43ADD6" transform="translate(53,87)"/>
<path d="M0 0 C0.80050781 0.03480469 1.60101563 0.06960937 2.42578125 0.10546875 C3.63814453 0.14607422 3.63814453 0.14607422 4.875 0.1875 C5.48988281 0.22230469 6.10476562 0.25710937 6.73828125 0.29296875 C6.73828125 1.28296875 6.73828125 2.27296875 6.73828125 3.29296875 C2.77828125 3.29296875 -1.18171875 3.29296875 -5.26171875 3.29296875 C-2.26171875 0.29296875 -2.26171875 0.29296875 0 0 Z " fill="#116DB2" transform="translate(89.26171875,42.70703125)"/>
<path d="M0 0 C-0.33 3.3 -0.66 6.6 -1 10 C-1.33 10 -1.66 10 -2 10 C-2.2475 8.72125 -2.495 7.4425 -2.75 6.125 C-3.51990586 2.73252682 -3.51990586 2.73252682 -6.125 0.5 C-6.74375 0.335 -7.3625 0.17 -8 0 C-4.71303767 -0.79953138 -3.28976808 -1.09658936 0 0 Z " fill="#D7F1F8" transform="translate(76,68)"/>
<path d="M0 0 C2.97 0 5.94 0 9 0 C5.68987756 3.31012244 4.46840411 3.50351065 0 4 C0 2.68 0 1.36 0 0 Z " fill="#20AAEA" transform="translate(87,53)"/>
<path d="M0 0 C2.046875 3.71875 2.046875 3.71875 1.625 6.25 C1.41875 6.8275 1.2125 7.405 1 8 C0.34 8 -0.32 8 -1 8 C-1.66 9.32 -2.32 10.64 -3 12 C-4 10 -4 10 -3.22265625 7.6171875 C-2.83980469 6.71226563 -2.45695312 5.80734375 -2.0625 4.875 C-1.68222656 3.96492188 -1.30195313 3.05484375 -0.91015625 2.1171875 C-0.60980469 1.41851562 -0.30945313 0.71984375 0 0 Z " fill="#D6EAF2" transform="translate(130,84)"/>
<path d="M0 0 C-1.44256344 4.32769033 -4.37402137 6.3468449 -8 9 C-8.99 9 -9.98 9 -11 9 C-9.54782324 7.49403892 -8.08807139 5.99537896 -6.625 4.5 C-5.40683594 3.24703125 -5.40683594 3.24703125 -4.1640625 1.96875 C-2 0 -2 0 0 0 Z " fill="#347CAC" transform="translate(66,39)"/>
<path d="M0 0 C0.33 0 0.66 0 1 0 C1.20086443 3.71599191 1.1519437 4.77208445 -1 8 C-2.32 7.67 -3.64 7.34 -5 7 C-3.625 4.5 -3.625 4.5 -2 2 C-1.34 2 -0.68 2 0 2 C0 1.34 0 0.68 0 0 Z " fill="#D9EEF5" transform="translate(70,108)"/>
<path d="M0 0 C2.31 0 4.62 0 7 0 C7 0.33 7 0.66 7 1 C5.02 1 3.04 1 1 1 C0.67 2.65 0.34 4.3 0 6 C-1.65 5.67 -3.3 5.34 -5 5 C-5 4.34 -5 3.68 -5 3 C-3.35 3 -1.7 3 0 3 C0 2.01 0 1.02 0 0 Z " fill="#1DA8DC" transform="translate(53,87)"/>
<path d="M0 0 C0.66 1.32 1.32 2.64 2 4 C0.625 5.5 0.625 5.5 -1 7 C-1.66 7 -2.32 7 -3 7 C-3 5.02 -3 3.04 -3 1 C-2.01 0.67 -1.02 0.34 0 0 Z " fill="#2D7BB5" transform="translate(59,74)"/>
<path d="M0 0 C2.95409701 1.37154504 5.44008376 2.98863724 8 5 C7.67 5.99 7.34 6.98 7 8 C6.443125 7.38125 5.88625 6.7625 5.3125 6.125 C2.93354822 3.93893621 1.03642904 3.01214301 -2 2 C-1.34 1.34 -0.68 0.68 0 0 Z " fill="#A7DEE9" transform="translate(94,59)"/>
<path d="M0 0 C2.97 0.33 5.94 0.66 9 1 C6.73038808 3.26961192 5.06630664 4.1025444 2 5 C1.01 4.34 0.02 3.68 -1 3 C-0.67 2.01 -0.34 1.02 0 0 Z " fill="#E8F1F4" transform="translate(65,33)"/>
<path d="M0 0 C0 0.66 0 1.32 0 2 C-0.99 2.66 -1.98 3.32 -3 4 C-3.33 4.99 -3.66 5.98 -4 7 C-5.32 6.67 -6.64 6.34 -8 6 C-7.8125 4.125 -7.8125 4.125 -7 2 C-4.55683729 0.74709605 -2.75474605 0 0 0 Z " fill="#DFEBEF" transform="translate(108,112)"/>
<path d="M0 0 C4.455 0.99 4.455 0.99 9 2 C6 5 6 5 3.3125 5.1875 C2.1678125 5.0946875 2.1678125 5.0946875 1 5 C1 4.34 1 3.68 1 3 C0.01 2.67 -0.98 2.34 -2 2 C-1.34 2 -0.68 2 0 2 C0 1.34 0 0.68 0 0 Z " fill="#176EB2" transform="translate(76,34)"/>
<path d="M0 0 C1.32 0.33 2.64 0.66 4 1 C4.33 2.65 4.66 4.3 5 6 C3.35 6.33 1.7 6.66 0 7 C0 4.69 0 2.38 0 0 Z " fill="#176FB3" transform="translate(82,107)"/>
<path d="M0 0 C1.37432457 3.81756824 0.67975039 7.07255329 0 11 C-2 9 -2 9 -2.25 5.5 C-2 2 -2 2 0 0 Z " fill="#3D82B0" transform="translate(82,103)"/>
<path d="M0 0 C0.99 0.33 1.98 0.66 3 1 C0.525 4.465 0.525 4.465 -2 8 C-3.0625 6.125 -3.0625 6.125 -4 4 C-3.67 3.34 -3.34 2.68 -3 2 C-2.01 2 -1.02 2 0 2 C0 1.34 0 0.68 0 0 Z " fill="#E2F0F2" transform="translate(54,46)"/>
<path d="M0 0 C0.99 0.33 1.98 0.66 3 1 C2.67 3.31 2.34 5.62 2 8 C1.34 8 0.68 8 0 8 C0 5.36 0 2.72 0 0 Z " fill="#1371B2" transform="translate(76,70)"/>
<path d="M0 0 C0 0.99 0 1.98 0 3 C-0.928125 3.4021875 -0.928125 3.4021875 -1.875 3.8125 C-4.2995233 4.95556848 -4.2995233 4.95556848 -6 8 C-7 6 -7 6 -6.9375 4 C-6 2 -6 2 -2.9375 0.75 C-1.968125 0.5025 -0.99875 0.255 0 0 Z " fill="#1879C5" transform="translate(121,97)"/>
<path d="M0 0 C0.33 0 0.66 0 1 0 C1.1875 2.375 1.1875 2.375 1 5 C0.01 5.66 -0.98 6.32 -2 7 C-2.66 6.67 -3.32 6.34 -4 6 C-3.67 5.01 -3.34 4.02 -3 3 C-2.34 3 -1.68 3 -1 3 C-0.67 2.01 -0.34 1.02 0 0 Z " fill="#F0F8F6" transform="translate(113,83)"/>
<path d="M0 0 C0 1.65 0 3.3 0 5 C-1.98 5 -3.96 5 -6 5 C-1.125 0 -1.125 0 0 0 Z " fill="#EEF8F8" transform="translate(64,76)"/>
<path d="M0 0 C0.66 1.32 1.32 2.64 2 4 C1.34 4.66 0.68 5.32 0 6 C-0.33 5.67 -0.66 5.34 -1 5 C-1.33 5.66 -1.66 6.32 -2 7 C-2.99 6.67 -3.98 6.34 -5 6 C-3.35 4.02 -1.7 2.04 0 0 Z " fill="#2BA1CE" transform="translate(102,82)"/>
<path d="M0 0 C0.99 0.33 1.98 0.66 3 1 C4.1875 4.0625 4.1875 4.0625 5 7 C2.69 5.35 0.38 3.7 -2 2 C-1.34 1.34 -0.68 0.68 0 0 Z " fill="#31A2CB" transform="translate(98,58)"/>
<path d="M0 0 C1.32 1.65 2.64 3.3 4 5 C3.67 5.66 3.34 6.32 3 7 C1.68 6.67 0.36 6.34 -1 6 C-0.67 4.02 -0.34 2.04 0 0 Z " fill="#D6F0F4" transform="translate(42,105)"/>
<path d="M0 0 C-0.33 0.99 -0.66 1.98 -1 3 C-3.31 3.33 -5.62 3.66 -8 4 C-3.375 0 -3.375 0 0 0 Z " fill="#2B7AAE" transform="translate(110,95)"/>
<path d="M0 0 C0.33 0 0.66 0 1 0 C1.16873478 1.43725871 1.33490737 2.87481838 1.5 4.3125 C1.5928125 5.11300781 1.685625 5.91351563 1.78125 6.73828125 C2 9 2 9 2 12 C0.48046875 10.79296875 0.48046875 10.79296875 -1 9 C-1.07421875 6.73828125 -1.07421875 6.73828125 -0.6875 4.3125 C-0.56761719 3.50425781 -0.44773437 2.69601563 -0.32421875 1.86328125 C-0.21722656 1.24839844 -0.11023438 0.63351563 0 0 Z " fill="#9AC7DC" transform="translate(75,71)"/>
<path d="M0 0 C2.97 0.495 2.97 0.495 6 1 C5.67 2.32 5.34 3.64 5 5 C3.0625 4.1875 3.0625 4.1875 1 3 C0.67 2.01 0.34 1.02 0 0 Z " fill="#F7F7F3" transform="translate(99,50)"/>
</svg>
